<svg id="visual" viewBox="0 0 900 600" width="900" height="600" xmlns="http://www.w3.org/2000/svg" xmlns:xlink="http://www.w3.org/1999/xlink" version="1.1"><path d="M0 391L21.5 405.7C43 420.3 86 449.7 128.8 473.7C171.7 497.7 214.3 516.3 257.2 505C300 493.7 343 452.3 385.8 441.3C428.7 430.3 471.3 449.7 514.2 464.8C557 480 600 491 642.8 494.7C685.7 498.3 728.3 494.7 771.2 477.5C814 460.3 857 429.7 878.5 414.3L900 399L900 601L878.5 601C857 601 814 601 771.2 601C728.3 601 685.7 601 642.8 601C600 601 557 601 514.2 601C471.3 601 428.7 601 385.8 601C343 601 300 601 257.2 601C214.3 601 171.7 601 128.8 601C86 601 43 601 21.5 601L0 601Z" fill="#001122" stroke-linecap="round" stroke-linejoin="miter"></path></svg>